<?xml version="1.0" standalone="no"?>
<!DOCTYPE svg PUBLIC "-//W3C//DTD SVG 20010904//EN"
 "http://www.w3.org/TR/2001/REC-SVG-20010904/DTD/svg10.dtd">
<svg version="1.0" xmlns="http://www.w3.org/2000/svg"
 width="300.000000pt" height="300.000000pt" viewBox="0 0 300.000000 300.000000"
 preserveAspectRatio="xMidYMid meet">
<metadata>
Created by potrace 1.14, written by Peter Selinger 2001-2017
</metadata>
<g transform="translate(0.000000,300.000000) scale(0.100000,-0.100000)"
fill="#000000" stroke="none">
<path d="M1088 1563 c-3 -345 -5 -391 -20 -420 -31 -55 -63 -73 -133 -73 -53
0 -68 4 -104 30 l-42 31 -65 -46 c-35 -25 -64 -50 -64 -54 0 -16 83 -83 129
-105 37 -17 65 -21 146 -21 89 0 106 3 157 28 66 33 119 90 145 156 15 41 18
93 21 454 l3 407 -85 0 -85 0 -3 -387z"/>
<path d="M1500 1430 l0 -520 85 0 85 0 0 131 0 131 81 104 c45 58 83 104 84
102 2 -2 64 -107 138 -233 l135 -230 101 -3 c56 -1 101 -1 101 2 0 3 -81 143
-180 312 l-180 307 27 36 c15 20 84 111 155 203 70 91 128 169 128 172 0 3
-46 6 -102 6 l-103 -1 -190 -265 -190 -265 -3 266 -2 265 -85 0 -85 0 0 -520z"/>
</g>
</svg>
